<svg height="24" viewBox="0 0 24 24" width="24" xmlns="http://www.w3.org/2000/svg"><path d="m21 11.597v-.597h1v-3h-1v-2c0-2.206-1.794-4-4-4h-10c-2.206 0-4 1.794-4 4v2h-1v3h1v.597c-.647.732-1 1.664-.999 2.648l.004 3.758c.001.733.404 1.369.995 1.716v1.281c0 .552.447 1 1 1h1c.553 0 1-.448 1-1v-1h12v1c0 .552.447 1 1 1h1c.553 0 1-.448 1-1v-1.274c.15-.087.295-.187.421-.313.377-.378.585-.881.584-1.415l-.004-3.759c-.001-.984-.355-1.914-1.001-2.642zm-13-7.597h8v2h-8zm-1.5 13c-.828 0-1.5-.672-1.5-1.5s.672-1.5 1.5-1.5 1.5.672 1.5 1.5-.672 1.5-1.5 1.5zm4.5-5h-6v-4h6zm6.5 5c-.828 0-1.5-.672-1.5-1.5s.672-1.5 1.5-1.5 1.5.672 1.5 1.5-.672 1.5-1.5 1.5zm1.5-5h-6v-4h6z"/></svg>