<svg viewBox="0 0 50 50" xmlns="http://www.w3.org/2000/svg"><path d="m5.875 15.90625c-3.234375.121094-5.875 2.773438-5.875 5.90625v20.375c0 1.542969 1.269531 2.8125 2.8125 2.8125h2.28125c.480469 2.832031 2.9375 5 5.90625 5s5.425781-2.167969 5.90625-5h16.1875c.480469 2.832031 2.9375 5 5.90625 5s5.429688-2.167969 5.90625-5h.40625c2.265625 0 4.6875-1.359375 4.6875-4.3125v-7.875c0-.941406-.199219-2.0625-.5625-3.15625-.019531-.046875-1.730469-4.773437-3.21875-8.34375-1.601562-3.953125-3.917969-5.40625-8.53125-5.40625zm1.4375 5.09375h6.375c1.300781 0 2.3125 1.011719 2.3125 2.3125v4.375c0 1.300781-1.011719 2.3125-2.3125 2.3125h-6.375c-1.300781 0-2.3125-1.011719-2.3125-2.3125v-4.375c0-1.300781 1.011719-2.3125 2.3125-2.3125zm15 0h7.375c1.300781 0 2.3125 1.011719 2.3125 2.3125v4.375c0 1.300781-1.011719 2.3125-2.3125 2.3125h-7.375c-1.300781 0-2.3125-1.011719-2.3125-2.3125v-4.375c0-1.300781 1.011719-2.3125 2.3125-2.3125zm16 0h5.5625c.175781.328125.339844.699219.5 1.09375 1.253906 3.003906 2.660156 6.8125 3.0625 7.90625h-9.125c-1.300781 0-2.3125-1.011719-2.3125-2.3125v-4.375c0-1.300781 1.011719-2.3125 2.3125-2.3125zm-27.3125 19c2.207031 0 4 1.792969 4 4 0 .347656-.074219.679688-.15625 1-.445312 1.722656-1.984375 3-3.84375 3s-3.398437-1.277344-3.84375-3c-.082031-.320312-.15625-.652344-.15625-1 0-2.207031 1.792969-4 4-4zm28 0c2.207031 0 4 1.792969 4 4 0 .347656-.074219.679688-.15625 1-.445312 1.722656-1.984375 3-3.84375 3s-3.398437-1.277344-3.84375-3c-.082031-.320312-.15625-.652344-.15625-1 0-2.207031 1.792969-4 4-4z"/></svg>