<?xml version="1.0" encoding="UTF-8"?>
<svg viewBox="0 0 500 500" xmlns="http://www.w3.org/2000/svg">
  <!-- Background circle -->
  <circle cx="250" cy="250" r="240" fill="#f5f5f5" stroke="#e0e0e0" stroke-width="2"/>
  
  <!-- Ticket outline -->
  <path d="M140,170 
           L360,170 
           C370,170 380,180 380,190
           L380,210
           C365,210 350,225 350,240
           C350,255 365,270 380,270
           L380,290
           C380,300 370,310 360,310
           L140,310
           C130,310 120,300 120,290
           L120,270
           C135,270 150,255 150,240
           C150,225 135,210 120,210
           L120,190
           C120,180 130,170 140,170 Z" 
        fill="white" 
        stroke="#bdbdbd" 
        stroke-width="6"/>
  
  <!-- Ticket perforated line -->
  <path d="M150,240 L350,240" stroke="#bdbdbd" stroke-width="4" stroke-dasharray="10,6"/>
  
  <!-- Calendar/history icon -->
  <rect x="200" y="185" width="100" height="90" rx="5" ry="5" fill="none" stroke="#bdbdbd" stroke-width="5"/>
  <path d="M210,200 L290,200" stroke="#bdbdbd" stroke-width="4"/>
  <rect x="215" y="210" width="15" height="15" fill="#e0e0e0"/>
  <rect x="240" y="210" width="15" height="15" fill="#e0e0e0"/>
  <rect x="265" y="210" width="15" height="15" fill="#e0e0e0"/>
  <rect x="215" y="235" width="15" height="15" fill="#e0e0e0"/>
  <rect x="240" y="235" width="15" height="15" fill="#e0e0e0"/>
  <rect x="265" y="235" width="15" height="15" fill="#e0e0e0"/>
  
  <!-- Error symbol/slash -->
  <circle cx="250" cy="250" r="130" fill="none" stroke="#e53935" stroke-width="12" stroke-opacity="0.7"/>
  <line x1="155" y1="155" x2="345" y2="345" stroke="#e53935" stroke-width="15" stroke-opacity="0.9"/>
  
  <!-- Ticket stub elements -->
  <circle cx="180" cy="200" r="6" fill="#bdbdbd"/>
  <circle cx="180" cy="280" r="6" fill="#bdbdbd"/>
  <path d="M270,275 L310,275" stroke="#bdbdbd" stroke-width="3"/>
  <path d="M270,285" stroke="#bdbdbd" stroke-width="3"/>
  
  <!-- Text -->
  <text x="250" y="365" font-family="Outfit, sans-serif" font-size="26" font-weight="bold" text-anchor="middle" fill="#616161">NO BOOKING HISTORY</text>
  <text x="250" y="390" font-family="Outfit, sans-serif" font-size="20" text-anchor="middle" fill="#9e9e9e">Your ticket records were not found</text>
</svg>